<svg fill="none" height="100%" width="100%" viewBox="0 0 512 512" xmlns:xlink="http://www.w3.org/1999/xlink" xmlns="http://www.w3.org/2000/svg"><g transform="matrix(1,0,0,1,102.5,104.5)" id="i0"><g id="i1" transform="matrix(1,0,0,1,71.09,279.75)"><path stroke-miterlimit="1" stroke-linecap="square" stroke-width="3.371" stroke="#626262" fill="#ffffff" d="M1.078,9.192C-0.359,23.055,-0.359,35.615,1.078,46.872C3.233,63.757,31.576,85.534,39.006,87.676C46.437,89.818,59.937,89.818,68.115,87.676C73.567,86.248,78.113,82.515,81.754,76.478C81.754,76.478,81.754,27.385,81.754,27.385C65.001,25.776,52.125,24.066,43.126,22.253C34.126,20.441,20.11,16.087,1.078,9.192Z" /></g><g id="i1" transform="matrix(-1,0,0,1,317.967,279.75)"><path stroke-miterlimit="1" stroke-linecap="square" stroke-width="3.371" stroke="#626262" fill="#ffffff" d="M83.639,0C82.202,19.082,82.202,34.251,83.639,45.508C85.794,62.393,114.138,84.169,121.568,86.311C128.998,88.454,142.498,88.454,150.676,86.311C156.128,84.883,160.675,81.15,164.316,75.113C164.316,75.113,164.316,27.427,164.316,27.427C147.562,24.88,134.686,22.701,125.687,20.889C116.688,19.076,102.672,12.114,83.639,0Z" /></g><g id="i1" transform="matrix(1,0,0,1,200.843,26.341)"><path stroke-miterlimit="1" stroke-linecap="square" stroke-width="3.371" stroke="#626262" fill="#ffffff" d="M0.015,0C28.403,2.971,56.408,30.382,84.03,82.235C125.462,160.013,113.628,198.75,111.149,210.542C110.631,213.004,108.873,216.047,106.271,218.834C105.937,220.446,105.563,221.868,105.148,223.1C101.045,235.271,91.755,247.851,89.729,248.567C83.789,250.666,78.118,245.398,76.61,240.757C75.847,238.407,82.584,238.749,82.584,232.805C82.584,231.517,83.487,229.335,85.293,226.259C81.598,225.293,77.836,223.013,74.246,218.912C74.246,218.912,75.359,225.181,75.359,225.181C75.959,229.716,75.547,232.609,74.123,233.86C71.987,235.736,65.11,235.159,64.788,230.949C64.66,229.271,63.406,223.756,64.788,216.4C65.165,214.395,66.098,211.787,67.588,208.577C65.584,204.495,63.704,199.603,62.004,193.786C46.309,140.083,31.349,120.626,18.965,82.235C10.709,56.64,4.393,29.229,0.015,0Z" /></g><g id="i1" transform="matrix(-1,0,0,1,87.921,26.18)"><path stroke-miterlimit="1" stroke-linecap="square" stroke-width="3.371" stroke="#626262" fill="#ffffff" d="M18.965,82.235C15.659,71.984,12.663,61.443,9.979,50.609C7.3,39.798,3.979,22.929,0.015,0C28.951,12.666,50.54,29.382,64.782,50.149C71.219,59.534,77.634,70.229,84.03,82.235C99.325,110.947,28.952,113.196,18.965,82.235Z" /></g><g id="i1" transform="matrix(1,0,0,1,0,2)"><path stroke-miterlimit="1" stroke-linecap="square" stroke-width="3.371" stroke="#616161" fill="#ffffff" d="M146.366,307.515C300.92,309.705,277.878,149.797,236.229,107.573C220.767,59.094,224.447,36.52,191.089,12.301C179.633,3.983,164.361,-0.115,145.275,0.005C128.18,1,114.697,5.098,104.825,12.301C74.283,34.584,74.283,42.867,55.145,107.573C21.073,146.835,-8.188,305.325,146.366,307.515Z" /></g></g><g id="i2"><g><g transform="translate(249,0)"><animateTransform repeatCount="indefinite" type="translate" attributeName="transform" dur="1.667s" begin="0s" calcMode="spline" values="249 0; 243 0; 249 0" keyTimes="0; 0.5; 1" keySplines="0.455 0.03 0.515 0.955; 0.755 0.05 0.855 0.06" fill="freeze" /><g transform="translate(0,80.602)"><animateTransform repeatCount="indefinite" type="translate" attributeName="transform" dur="1.667s" begin="0s" calcMode="spline" values="0 80.602; 0 78.566; 0 80.602" keyTimes="0; 0.5; 1" keySplines="0.455 0.03 0.515 0.955; 0.755 0.05 0.855 0.06" fill="freeze" /><g transform="rotate(8.021)"><animateTransform repeatCount="indefinite" type="rotate" attributeName="transform" dur="1.667s" begin="0s" calcMode="spline" values="8.021; -0.057; 8.021" keyTimes="0; 0.5; 1" keySplines="0.455 0.03 0.515 0.955; 0.755 0.05 0.855 0.06" fill="freeze" /><g transform="scale(1,1) translate(-60,-46)"><g id="i3" transform="matrix(0.988,-0.157,0.157,0.988,-6,11.772)"><path stroke-miterlimit="1" stroke-linecap="square" stroke-width="3.371" stroke="#626262" fill="#ffffff" d="M108.167,73.95C102.953,80.61,81.939,84.482,60.928,85.168C40.832,85.825,20.334,83.523,12.874,76.919C5.354,70.262,1.685,58.786,1.685,47.083C1.685,35.305,5.411,23.213,12.97,15.382C21.142,6.915,41.799,1.685,61.961,1.685C79.456,1.685,96.779,5.603,105.299,15.322C113.372,24.53,116.834,34.589,117.29,44.062C117.86,55.89,113.764,66.799,108.167,73.95Z" /></g><g id="i3" transform="matrix(0.988,-0.157,0.157,0.988,19.451,43.736)"><rect height="1.685" width="55.618" y="12.64" x="11.64" stroke-miterlimit="1" stroke-linecap="square" stroke-width="1.685" stroke="#4d4d4d" fill-rule="evenodd" fill="#4d4d4d" /></g><g id="i3" transform="matrix(0.998,0.07,-0.07,0.998,21.83,41.376)"><ellipse ry="8.427" rx="6.742" cy="10" cx="9" stroke-miterlimit="1" stroke-linecap="square" stroke-width="1.685" stroke="#4d4d4d" fill-rule="evenodd" fill="#4d4d4d" /></g><g id="i3" transform="matrix(0.927,-0.375,-0.375,-0.927,29.546,80.122)"><ellipse ry="8.427" rx="6.742" cy="10" cx="70" stroke-miterlimit="1" stroke-linecap="square" stroke-width="1.685" stroke="#4d4d4d" fill-rule="evenodd" fill="#4d4d4d" /></g></g></g></g></g></g></g><g id="i4"><g><g transform="translate(132.111,0)"><animateTransform repeatCount="indefinite" type="translate" attributeName="transform" dur="1.667s" begin="0s" calcMode="spline" values="132.111 0; 132.111 0; 155.421 0; 120.275 0; 155.421 0; 120.276 0; 132.111 0; 132.111 0" keyTimes="0; 0.1; 0.2; 0.3; 0.4; 0.5; 0.6; 1" keySplines="0 0 1 1; 0.455 0.03 0.515 0.955; 0.455 0.03 0.515 0.955; 0.455 0.03 0.515 0.955; 0.455 0.03 0.515 0.955; 0.455 0.03 0.515 0.955; 0 0 1 1" fill="freeze" /><g transform="translate(0,154.261)"><animateTransform repeatCount="indefinite" type="translate" attributeName="transform" dur="1.667s" begin="0s" calcMode="spline" values="0 154.261; 0 154.261; 0 159.688; 0 158.58; 0 159.688; 0 158.58; 0 154.261; 0 154.261" keyTimes="0; 0.1; 0.2; 0.3; 0.4; 0.5; 0.6; 1" keySplines="0 0 1 1; 0.455 0.03 0.515 0.955; 0.455 0.03 0.515 0.955; 0.455 0.03 0.515 0.955; 0.455 0.03 0.515 0.955; 0.455 0.03 0.515 0.955; 0 0 1 1" fill="freeze" /><g transform="rotate(-27.502)"><animateTransform repeatCount="indefinite" type="rotate" attributeName="transform" dur="1.667s" begin="0s" calcMode="spline" values="-27.502; -27.502; 0.115; -41.253; 0.115; -41.253; -27.502; -27.502" keyTimes="0; 0.1; 0.2; 0.3; 0.4; 0.5; 0.6; 1" keySplines="0 0 1 1; 0.455 0.03 0.515 0.955; 0.455 0.03 0.515 0.955; 0.455 0.03 0.515 0.955; 0.455 0.03 0.515 0.955; 0.455 0.03 0.515 0.955; 0 0 1 1" fill="freeze" /><g transform="scale(1,1) translate(-61,-88)"><g id="i5" transform="matrix(0.891,0.454,-0.454,0.891,75.062,-9.907)"><path stroke-miterlimit="1" stroke-linecap="square" stroke-width="3.371" stroke="#626260" fill="#ffffff" d="M55.407,32.961C54.033,32.936,52.674,32.896,51.332,32.842C53.831,34.395,55.978,36.211,57.658,38.156C57.8,39.261,57.951,40.373,58.109,41.492C58.109,41.492,0,51.444,0,51.444C1.421,47.677,3.106,44.516,5.085,42.146C5.297,41.892,5.51,41.642,5.724,41.396C3.981,19.278,7.524,7.475,16.352,5.988C18.111,5.692,19.522,5.82,20.586,6.372C22.554,2.876,25.382,1.057,29.071,0.915C31.641,0.816,33.573,1.509,34.868,2.992C35.327,1.47,35.819,0.516,36.316,0.416C49.868,-2.33,56.232,8.519,55.407,32.961Z" /></g><g id="i5" transform="matrix(0.891,0.454,-0.454,0.891,75.062,-9.907)"><path stroke-miterlimit="1" stroke-linecap="square" stroke-width="3.371" stroke="#626262" fill="#000000" fill-opacity="0" d="M20.448,6.343C18.602,11.995,17.522,16.32,17.206,19.316C16.891,22.313,16.891,26.2,17.206,30.977" /></g><g id="i5" transform="matrix(0.891,0.454,-0.454,0.891,75.062,-9.907)"><path stroke-miterlimit="1" stroke-linecap="square" stroke-width="3.371" stroke="#626262" fill="#000000" fill-opacity="0" d="M34.957,2.319C33.87,7.944,33.168,12.255,32.853,15.252C32.537,18.248,32.537,22.122,32.853,26.872" /></g><g id="i5" transform="matrix(0.891,0.454,-0.454,0.891,57.895,8.784)"><path stroke-miterlimit="1" stroke-linecap="square" stroke-width="3.371" stroke="#626262" fill="#ffffff" d="M65.763,0.088C78.163,5.056,73.228,14.307,65.358,21.135C71.27,58.605,84.414,101.892,79.51,123.818C75.123,143.434,63.951,153.807,57.759,155.428C50.32,157.377,46.116,159.029,41.869,159.005C38.32,158.984,34.648,157.684,29.93,155.428C19.569,150.473,16.954,148.531,8.564,138.621C0.173,128.71,-6.751,38.787,11.59,16.829C26.015,-0.442,44.356,0.141,56.182,6.562C56.601,3.001,58.024,-0.613,65.763,0.088Z" /></g><g id="i5" transform="matrix(0.891,0.454,-0.454,0.891,57.895,8.784)"><path stroke-miterlimit="1" stroke-linecap="round" stroke-width="3.371" stroke="#626262" fill="#000000" fill-opacity="0" d="M63.38,34.473C59.515,38.691,51.322,40.394,44.648,35.747C34.548,28.716,38.798,8.79,52.36,12.651C55.065,13.421,55.665,12.043,55.9,9.946C56.015,8.923,56.042,7.73,56.185,6.532" /></g></g></g></g></g></g></g></svg>